<mxfile host="app.diagrams.net" modified="2022-07-11T11:57:53.023Z" agent="5.0 (Macintosh)" etag="TOs-SJxpAiC7QOx_ljLc" version="20.0.4" type="github">
  <diagram id="072cbzqGZdJSR3o4yALt" name="Page-1">
    <mxGraphModel dx="2282" dy="923" grid="1" gridSize="10" guides="1" tooltips="1" connect="1" arrows="1" fold="1" page="1" pageScale="1" pageWidth="827" pageHeight="1169" math="0" shadow="0">
      <root>
        <mxCell id="0" />
        <mxCell id="1" parent="0" />
        <mxCell id="5DS9fF-XWLZNN3ucQ55--1" value="&lt;p style=&quot;margin:0px;margin-top:4px;text-align:center;&quot;&gt;&lt;b&gt;ConfirmationPresenter&lt;/b&gt;&lt;/p&gt;&lt;hr size=&quot;1&quot;&gt;&lt;p style=&quot;margin:0px;margin-left:4px;&quot;&gt;+ field: Type&lt;/p&gt;&lt;hr size=&quot;1&quot;&gt;&lt;p style=&quot;margin:0px;margin-left:4px;&quot;&gt;+ unsubscribeBindingAccount(qrDetails: QrDetails) {&lt;/p&gt;&lt;p style=&quot;margin:0px;margin-left:4px;&quot;&gt;...&lt;/p&gt;&lt;p style=&quot;margin:0px;margin-left:4px;&quot;&gt;bm.&lt;b&gt;successUnsubscribeBindingAccountState&lt;/b&gt;.accept()&lt;br&gt;&lt;/p&gt;&lt;p style=&quot;margin:0px;margin-left:4px;&quot;&gt;}&lt;/p&gt;&lt;p style=&quot;margin:0px;margin-left:4px;&quot;&gt;&lt;br&gt;&lt;/p&gt;&lt;p style=&quot;margin:0px;margin-left:4px;&quot;&gt;+ handleErrorUnsubscribeBindingAccount(error: Throwable) {&lt;/p&gt;&lt;p style=&quot;margin:0px;margin-left:4px;&quot;&gt;...&lt;/p&gt;&lt;p style=&quot;margin:0px;margin-left:4px;&quot;&gt;bm.&lt;b&gt;failedUnsubscribeBindingAccountState&lt;/b&gt;.accept()&lt;br&gt;&lt;/p&gt;&lt;p style=&quot;margin:0px;margin-left:4px;&quot;&gt;}&lt;/p&gt;&lt;p style=&quot;margin:0px;margin-left:4px;&quot;&gt;&lt;br&gt;&lt;/p&gt;&lt;p style=&quot;margin:0px;margin-left:4px;&quot;&gt;+ saveChanges() {&lt;/p&gt;&lt;p style=&quot;margin:0px;margin-left:4px;&quot;&gt;...&lt;/p&gt;&lt;p style=&quot;margin:0px;margin-left:4px;&quot;&gt;bm.&lt;b&gt;successSubscribeBindingAccountState&lt;/b&gt;.accept()&lt;br&gt;&lt;/p&gt;&lt;p style=&quot;margin:0px;margin-left:4px;&quot;&gt;}&lt;/p&gt;&lt;p style=&quot;margin:0px;margin-left:4px;&quot;&gt;&lt;br&gt;&lt;/p&gt;&lt;p style=&quot;margin:0px;margin-left:4px;&quot;&gt;+ handleErrorSavingChanges(error: Throwable) {&lt;/p&gt;&lt;p style=&quot;margin:0px;margin-left:4px;&quot;&gt;bm.&lt;b&gt;failedSubscribeBindingAccountState&lt;/b&gt;.accept(error)&lt;br&gt;&lt;/p&gt;&lt;p style=&quot;margin:0px;margin-left:4px;&quot;&gt;}&lt;br&gt;&lt;/p&gt;" style="verticalAlign=top;align=left;overflow=fill;fontSize=12;fontFamily=Helvetica;html=1;" vertex="1" parent="1">
          <mxGeometry x="120" y="120" width="360" height="320" as="geometry" />
        </mxCell>
        <mxCell id="5DS9fF-XWLZNN3ucQ55--2" value="&lt;p style=&quot;margin:0px;margin-top:4px;text-align:center;&quot;&gt;&lt;b&gt;C2BBindingAccountScreenPresenter&lt;/b&gt;&lt;/p&gt;&lt;hr size=&quot;1&quot;&gt;&lt;p style=&quot;margin:0px;margin-left:4px;&quot;&gt;+ field: Type&lt;/p&gt;&lt;hr size=&quot;1&quot;&gt;&lt;p style=&quot;margin:0px;margin-left:4px;&quot;&gt;+ onFirstLoad() {&lt;/p&gt;&lt;p style=&quot;margin:0px;margin-left:4px;&quot;&gt;bm.failedUnsubscribeBindingAccountState bindTo ::closeScreen&lt;/p&gt;&lt;p style=&quot;margin:0px;margin-left:4px;&quot;&gt;bm.successUnsubscribeBindingAccountState bindTo ::openPreviewConfirm&lt;br&gt;&lt;/p&gt;&lt;p style=&quot;margin:0px;margin-left:4px;&quot;&gt;}&lt;/p&gt;&lt;p style=&quot;margin:0px;margin-left:4px;&quot;&gt;&lt;br&gt;&lt;/p&gt;&lt;p style=&quot;margin:0px;margin-left:4px;&quot;&gt;+ openPreviewConfirm() {&lt;/p&gt;&lt;p style=&quot;margin:0px;margin-left:4px;&quot;&gt;&lt;br&gt;&lt;/p&gt;&lt;p style=&quot;margin:0px;margin-left:4px;&quot;&gt;}&lt;br&gt;&lt;/p&gt;" style="verticalAlign=top;align=left;overflow=fill;fontSize=12;fontFamily=Helvetica;html=1;" vertex="1" parent="1">
          <mxGeometry x="520" y="120" width="440" height="200" as="geometry" />
        </mxCell>
        <mxCell id="5DS9fF-XWLZNN3ucQ55--4" value="&lt;p style=&quot;margin:0px;margin-top:4px;text-align:center;&quot;&gt;&lt;b&gt;PreviewCreateSubscriptionFragmentView&lt;/b&gt;&lt;/p&gt;&lt;hr size=&quot;1&quot;&gt;&lt;p style=&quot;margin:0px;margin-left:4px;&quot;&gt;+ field: Type&lt;/p&gt;&lt;hr size=&quot;1&quot;&gt;&lt;p style=&quot;margin:0px;margin-left:4px;&quot;&gt;+ method(): Type&lt;/p&gt;" style="verticalAlign=top;align=left;overflow=fill;fontSize=12;fontFamily=Helvetica;html=1;" vertex="1" parent="1">
          <mxGeometry x="1000" y="280" width="279" height="80" as="geometry" />
        </mxCell>
        <mxCell id="5DS9fF-XWLZNN3ucQ55--5" value="&lt;p style=&quot;margin:0px;margin-top:4px;text-align:center;&quot;&gt;&lt;b&gt;PreviewCreateSubscriptionFragmentConfigurator&lt;/b&gt;&lt;/p&gt;&lt;hr size=&quot;1&quot;&gt;&lt;p style=&quot;margin:0px;margin-left:4px;&quot;&gt;+ field: Type&lt;/p&gt;&lt;hr size=&quot;1&quot;&gt;&lt;p style=&quot;margin:0px;margin-left:4px;&quot;&gt;+ method(): Type&lt;/p&gt;" style="verticalAlign=top;align=left;overflow=fill;fontSize=12;fontFamily=Helvetica;html=1;" vertex="1" parent="1">
          <mxGeometry x="1000" y="120" width="319.5" height="80" as="geometry" />
        </mxCell>
        <mxCell id="5DS9fF-XWLZNN3ucQ55--6" value="&lt;p style=&quot;margin:0px;margin-top:4px;text-align:center;&quot;&gt;&lt;b&gt;PreviewCreateSubscriptionFragmentPresenter&lt;/b&gt;&lt;/p&gt;&lt;hr size=&quot;1&quot;&gt;&lt;p style=&quot;margin:0px;margin-left:4px;&quot;&gt;+ field: Type&lt;/p&gt;&lt;hr size=&quot;1&quot;&gt;&lt;p style=&quot;margin:0px;margin-left:4px;&quot;&gt;+ onSuccessRequestRepeat() {&lt;/p&gt;&lt;p style=&quot;margin:0px;margin-left:4px;&quot;&gt;&lt;br&gt;&lt;/p&gt;&lt;p style=&quot;margin:0px;margin-left:4px;&quot;&gt;}&lt;/p&gt;&lt;p style=&quot;margin:0px;margin-left:4px;&quot;&gt;&lt;br&gt;&lt;/p&gt;&lt;p style=&quot;margin:0px;margin-left:4px;&quot;&gt;+ onFailureRequestRepeat() {&lt;/p&gt;&lt;p style=&quot;margin:0px;margin-left:4px;&quot;&gt;&lt;br&gt;&lt;/p&gt;&lt;p style=&quot;margin:0px;margin-left:4px;&quot;&gt;}&lt;/p&gt;&lt;p style=&quot;margin:0px;margin-left:4px;&quot;&gt;&lt;br&gt;&lt;/p&gt;&lt;p style=&quot;margin:0px;margin-left:4px;&quot;&gt;+ createConfirmRequest() {&lt;/p&gt;&lt;p style=&quot;margin:0px;margin-left:4px;&quot;&gt;createSubscription&lt;br&gt;&lt;/p&gt;&lt;p style=&quot;margin:0px;margin-left:4px;&quot;&gt;}&lt;br&gt;&lt;/p&gt;" style="verticalAlign=top;align=left;overflow=fill;fontSize=12;fontFamily=Helvetica;html=1;" vertex="1" parent="1">
          <mxGeometry x="1359.5" y="120" width="280.5" height="240" as="geometry" />
        </mxCell>
        <mxCell id="5DS9fF-XWLZNN3ucQ55--7" value="&lt;p style=&quot;margin:0px;margin-top:4px;text-align:center;&quot;&gt;&lt;b&gt;PreviewSubscriptionParams&lt;/b&gt;&lt;/p&gt;&lt;hr size=&quot;1&quot;&gt;&lt;p style=&quot;margin:0px;margin-left:4px;&quot;&gt;+ qrDetails: QrDetails&lt;/p&gt;&lt;p style=&quot;margin:0px;margin-left:4px;&quot;&gt;+ agreements: Boolean&lt;br&gt;&lt;/p&gt;&lt;p style=&quot;margin:0px;margin-left:4px;&quot;&gt;+ limit: Money&lt;br&gt;&lt;/p&gt;&lt;hr size=&quot;1&quot;&gt;&lt;p style=&quot;margin:0px;margin-left:4px;&quot;&gt;+ method(): Type&lt;/p&gt;" style="verticalAlign=top;align=left;overflow=fill;fontSize=12;fontFamily=Helvetica;html=1;" vertex="1" parent="1">
          <mxGeometry x="1680" y="120" width="200" height="120" as="geometry" />
        </mxCell>
        <mxCell id="5DS9fF-XWLZNN3ucQ55--9" value="&lt;p style=&quot;margin:0px;margin-top:4px;text-align:center;&quot;&gt;&lt;b&gt;ComfirmationModel&lt;/b&gt;&lt;/p&gt;&lt;hr size=&quot;1&quot;&gt;&lt;p style=&quot;margin:0px;margin-left:4px;&quot;&gt;+ failedUnsubscribeBindingAccountState = State&amp;lt;Throwable&amp;gt;&lt;/p&gt;&lt;p style=&quot;margin:0px;margin-left:4px;&quot;&gt;+ successSubscribeBindingAccountState = State&amp;lt;Unit&amp;gt;&lt;/p&gt;&lt;p style=&quot;margin:0px;margin-left:4px;&quot;&gt;+ failedSubscribeBindingAccountState = State&amp;lt;Throwable&amp;gt;&lt;/p&gt;&lt;hr size=&quot;1&quot;&gt;&lt;p style=&quot;margin:0px;margin-left:4px;&quot;&gt;+ method(): Type&lt;/p&gt;" style="verticalAlign=top;align=left;overflow=fill;fontSize=12;fontFamily=Helvetica;html=1;" vertex="1" parent="1">
          <mxGeometry x="-280" y="120" width="360" height="120" as="geometry" />
        </mxCell>
        <mxCell id="5DS9fF-XWLZNN3ucQ55--10" value="&lt;p style=&quot;margin:0px;margin-top:4px;text-align:center;&quot;&gt;&lt;b&gt;C2BBindingAccountSuccessScreenPresenter&lt;/b&gt;&lt;/p&gt;&lt;hr size=&quot;1&quot;&gt;&lt;p style=&quot;margin:0px;margin-left:4px;&quot;&gt;+ field: Type&lt;/p&gt;&lt;hr size=&quot;1&quot;&gt;&lt;p style=&quot;margin:0px;margin-left:4px;&quot;&gt;+ onFirstLoad() {&lt;/p&gt;&lt;p style=&quot;margin:0px;margin-left:4px;&quot;&gt;bm.failedSubscribeBindingAccountState bindTo ::openPreviewCancel&lt;/p&gt;&lt;p style=&quot;margin:0px;margin-left:4px;&quot;&gt;bm.successSubscribeBindingAccountState bindTo ::openPreviewConfirm&lt;br&gt;&lt;/p&gt;&lt;p style=&quot;margin:0px;margin-left:4px;&quot;&gt;}&lt;/p&gt;&lt;p style=&quot;margin:0px;margin-left:4px;&quot;&gt;&lt;br&gt;&lt;/p&gt;&lt;p style=&quot;margin:0px;margin-left:4px;&quot;&gt;+ openPreviewCancel() {&lt;br&gt;&lt;br&gt;}&lt;br&gt;&lt;/p&gt;&lt;p style=&quot;margin:0px;margin-left:4px;&quot;&gt;&lt;br&gt;&lt;/p&gt;&lt;p style=&quot;margin:0px;margin-left:4px;&quot;&gt;+ openPreviewConfirm() {&lt;/p&gt;&lt;p style=&quot;margin:0px;margin-left:4px;&quot;&gt;&lt;br&gt;&lt;/p&gt;&lt;p style=&quot;margin:0px;margin-left:4px;&quot;&gt;}&lt;br&gt;&lt;/p&gt;" style="verticalAlign=top;align=left;overflow=fill;fontSize=12;fontFamily=Helvetica;html=1;" vertex="1" parent="1">
          <mxGeometry x="520" y="400" width="440" height="240" as="geometry" />
        </mxCell>
        <mxCell id="5DS9fF-XWLZNN3ucQ55--11" value="10m" style="shape=umlFrame;whiteSpace=wrap;html=1;" vertex="1" parent="1">
          <mxGeometry x="-290" y="80" width="380" height="170" as="geometry" />
        </mxCell>
        <mxCell id="5DS9fF-XWLZNN3ucQ55--12" value="20m" style="shape=umlFrame;whiteSpace=wrap;html=1;" vertex="1" parent="1">
          <mxGeometry x="114" y="80" width="376" height="370" as="geometry" />
        </mxCell>
        <mxCell id="5DS9fF-XWLZNN3ucQ55--13" value="15m" style="shape=umlFrame;whiteSpace=wrap;html=1;" vertex="1" parent="1">
          <mxGeometry x="510" y="80" width="460" height="250" as="geometry" />
        </mxCell>
        <mxCell id="5DS9fF-XWLZNN3ucQ55--15" value="20m" style="shape=umlFrame;whiteSpace=wrap;html=1;" vertex="1" parent="1">
          <mxGeometry x="510" y="360" width="460" height="290" as="geometry" />
        </mxCell>
        <mxCell id="5DS9fF-XWLZNN3ucQ55--16" value="15m" style="shape=umlFrame;whiteSpace=wrap;html=1;" vertex="1" parent="1">
          <mxGeometry x="990" y="80" width="340" height="130" as="geometry" />
        </mxCell>
        <mxCell id="5DS9fF-XWLZNN3ucQ55--17" value="15m" style="shape=umlFrame;whiteSpace=wrap;html=1;" vertex="1" parent="1">
          <mxGeometry x="990" y="240" width="300" height="130" as="geometry" />
        </mxCell>
        <mxCell id="5DS9fF-XWLZNN3ucQ55--18" value="45m" style="shape=umlFrame;whiteSpace=wrap;html=1;" vertex="1" parent="1">
          <mxGeometry x="1350" y="80" width="300" height="290" as="geometry" />
        </mxCell>
        <mxCell id="5DS9fF-XWLZNN3ucQ55--19" value="15m" style="shape=umlFrame;whiteSpace=wrap;html=1;" vertex="1" parent="1">
          <mxGeometry x="1670" y="80" width="220" height="170" as="geometry" />
        </mxCell>
        <mxCell id="5DS9fF-XWLZNN3ucQ55--20" value="2h 35m + 2h = 4h 35m" style="shape=umlFrame;whiteSpace=wrap;html=1;width=300;height=30;" vertex="1" parent="1">
          <mxGeometry x="-300" y="40" width="2200" height="620" as="geometry" />
        </mxCell>
      </root>
    </mxGraphModel>
  </diagram>
</mxfile>
